<svg id="Capa_1" enable-background="new 0 0 512 512" height="512" viewBox="0 0 512 512" width="512" xmlns="http://www.w3.org/2000/svg"><path d="m389.855 104.538v-22.698h5.789c12.423 0 22.529-10.107 22.529-22.529v-36.781c0-12.423-10.107-22.53-22.529-22.53h-279.288c-12.423 0-22.53 10.107-22.53 22.53v36.78c0 12.423 10.107 22.529 22.53 22.529h5.789v22.698c-36.562 1.393-65.881 31.555-65.881 68.453v270.49c0 37.782 30.738 68.52 68.519 68.52h262.433c37.782 0 68.52-30.738 68.52-68.52v-270.49c0-36.897-29.319-67.059-65.881-68.452zm-273.499-37.728c-4.136 0-7.5-3.365-7.5-7.5v-36.78c0-4.136 3.365-7.5 7.5-7.5h279.288c4.136 0 7.5 3.364 7.5 7.5v36.78c0 4.136-3.364 7.5-7.5 7.5h-173.374c-4.15 0-7.515 3.364-7.515 7.515 0 4.15 3.365 7.515 7.515 7.515h152.556v22.631h-237.651v-22.631h55.036c4.15 0 7.515-3.365 7.515-7.515s-3.364-7.515-7.515-7.515zm324.351 141.381h-52.526c-4.151 0-7.515 3.365-7.515 7.515s3.364 7.515 7.515 7.515h52.526v158.611h-274.142c-4.15 0-7.515 3.365-7.515 7.515s3.365 7.515 7.515 7.515h274.142v46.619c0 29.495-23.996 53.49-53.49 53.49h-262.434c-29.494 0-53.49-23.996-53.49-53.49v-46.619h65.212c4.15 0 7.515-3.365 7.515-7.515s-3.364-7.515-7.515-7.515h-65.212v-158.612h286.829c4.151 0 7.515-3.365 7.515-7.515s-3.364-7.515-7.515-7.515h-286.829v-35.2c0-29.495 23.996-53.491 53.49-53.491h262.433c29.494 0 53.49 23.996 53.49 53.491v35.201z"/><path d="m268.459 292.212h-17.98l18.301-28.814c2.195-3.456 1.142-8.177-2.314-10.372s-8.177-1.141-10.373 2.315l-25.634 40.358c-3.123 4.917.537 11.544 6.343 11.544h17.98l-18.302 28.814c-2.054 3.234-1.285 7.624 1.742 9.969 3.453 2.675 8.606 1.77 10.945-1.912l25.634-40.358c3.124-4.917-.536-11.544-6.342-11.544z"/></svg>