<?xml version="1.0" standalone="no"?>
<!DOCTYPE svg PUBLIC "-//W3C//DTD SVG 20010904//EN"
 "http://www.w3.org/TR/2001/REC-SVG-20010904/DTD/svg10.dtd">
<svg version="1.0" xmlns="http://www.w3.org/2000/svg"
 width="514.000000pt" height="239.000000pt" viewBox="0 0 514.000000 239.000000"
 preserveAspectRatio="xMidYMid meet">
<metadata>
Created by potrace 1.15, written by Peter Selinger 2001-2017
</metadata>
<g transform="translate(0.000000,239.000000) scale(0.100000,-0.100000)"
fill="#000000" stroke="none">
<path d="M1120 1801 c-94 -21 -212 -59 -305 -101 -56 -25 -64 -32 -84 -79 -28
-66 -26 -135 4 -139 29 -4 233 97 216 107 -16 10 111 65 201 86 70 16 178 20
178 6 0 -16 -81 -113 -178 -213 -101 -104 -110 -109 -245 -125 -55 -7 -97 -46
-97 -92 0 -29 30 -51 70 -51 17 0 14 -8 -20 -57 -42 -59 -51 -102 -25 -123 26
-21 48 -6 122 85 40 49 81 92 91 96 21 8 172 23 172 18 0 -2 -14 -31 -30 -63
-20 -39 -30 -74 -30 -102 0 -43 1 -44 33 -44 17 0 47 9 65 20 25 16 32 26 32
52 0 18 12 57 27 86 l27 53 55 -2 55 -3 53 60 54 59 -22 -44 c-43 -84 -35
-193 17 -242 21 -20 36 -24 87 -24 84 0 134 30 269 163 89 87 113 106 148 112
l41 7 -26 -31 c-67 -83 -89 -170 -56 -223 17 -27 27 -33 54 -33 38 0 106 40
156 94 37 38 51 45 51 23 0 -26 59 -97 81 -97 26 0 70 29 132 89 52 50 52 50
31 -30 -8 -28 14 -69 42 -79 36 -14 78 8 156 80 l63 58 28 -59 c55 -117 134
-117 274 0 l61 51 12 -35 c6 -20 23 -49 37 -65 46 -56 103 -39 209 62 l41 39
11 -39 c6 -21 23 -49 38 -63 21 -20 36 -24 87 -24 76 0 132 30 225 118 52 51
62 65 62 95 l0 34 -52 -47 c-94 -84 -187 -117 -227 -81 -24 22 -34 66 -15 66
8 0 43 12 79 26 96 39 195 134 195 189 0 30 -38 55 -85 55 -123 0 -257 -103
-304 -232 -12 -32 -127 -120 -150 -116 -21 4 -41 45 -41 84 0 26 11 41 64 88
124 109 206 243 226 370 9 58 9 72 -4 84 -61 61 -317 -244 -386 -459 -20 -60
-30 -76 -64 -101 -100 -73 -174 -90 -208 -49 -32 41 -19 71 57 131 37 29 40
30 52 14 40 -54 158 93 132 164 -12 31 -77 30 -147 -3 -68 -32 -177 -138 -187
-183 -5 -24 -21 -43 -63 -72 -100 -72 -128 -40 -62 72 36 60 41 76 36 108 -4
27 -2 41 9 50 21 18 19 33 -10 60 -24 22 -28 23 -77 11 -126 -29 -282 -125
-337 -208 -17 -26 -31 -52 -31 -58 0 -17 -102 -95 -124 -95 -48 0 -26 65 50
151 57 63 65 89 38 128 -15 21 -22 23 -93 20 -76 -4 -77 -3 -73 19 11 56 -107
-8 -143 -79 -17 -33 -20 -80 -4 -96 14 -14 -77 -96 -144 -130 -59 -29 -100
-32 -126 -9 -24 22 -34 66 -15 66 36 0 149 57 195 97 78 71 95 117 59 153 -45
45 -178 13 -267 -66 -29 -25 -53 -41 -53 -36 0 11 -47 29 -88 34 -22 3 -18 11
56 108 44 59 87 120 96 137 17 35 21 88 7 97 -12 7 -93 -80 -205 -222 -85
-106 -91 -112 -126 -112 -21 0 -53 -3 -71 -7 -33 -6 -32 -4 49 81 46 49 96
111 112 140 48 83 38 174 -23 196 -44 15 -161 11 -257 -9z m1450 -491 c-89
-102 -182 -172 -203 -151 -18 18 18 77 70 115 50 37 159 96 175 96 6 0 -13
-27 -42 -60z"/>
</g>
</svg>
